<svg t="1660182881224" class="icon" viewBox="0 0 1211 1024" version="1.1" xmlns="http://www.w3.org/2000/svg" p-id="4575" width="128" height="128"><path d="M494.251911 1024a47.407407 47.407407 0 0 1-33.185185-14.222222L33.214874 581.925926a110.222222 110.222222 0 0 1-33.185185-75.851852 105.481481 105.481481 0 0 1 30.814815-77.037037L445.659319 14.222222a47.768889 47.768889 0 1 1 67.555555 67.555556L98.400059 495.407407a11.851852 11.851852 0 0 0-3.555555 8.296297 15.407407 15.407407 0 0 0 4.74074 10.666666l427.851852 429.037037a47.407407 47.407407 0 0 1-33.185185 80.592593z" fill="#ffffff" p-id="4576"></path><path d="M1163.881541 559.407407H68.77043a47.407407 47.407407 0 1 1 0-94.814814h1095.111111a47.407407 47.407407 0 0 1 0 94.814814z" fill="#ffffff" p-id="4577"></path></svg>