<svg t="1660177354137" class="icon" viewBox="0 0 1024 1024" version="1.1" xmlns="http://www.w3.org/2000/svg" p-id="3751" width="128" height="128"><path d="M841.813333 253.269333c-0.938667 5.888-2.005333 11.946667-3.2 18.176-40.576 209.749333-179.498667 282.24-356.864 282.24H391.424a43.946667 43.946667 0 0 0-43.349333 37.376l-46.250667 295.210667-13.098667 83.626667a23.338667 23.338667 0 0 0 22.784 26.88h160.213334a38.613333 38.613333 0 0 0 38.058666-32.682667l1.578667-8.192 30.165333-192.64 1.962667-10.538667a38.613333 38.613333 0 0 1 38.058667-32.768h23.936c155.221333 0 276.736-63.445333 312.234666-246.954666 14.848-76.672 7.168-140.714667-32.085333-185.728a153.301333 153.301333 0 0 0-43.861333-34.005334z" fill="#179BD7" p-id="3752"></path><path d="M799.317333 236.202667a318.464 318.464 0 0 0-39.509333-8.789334 498.474667 498.474667 0 0 0-79.616-5.845333h-241.28a38.528 38.528 0 0 0-38.058667 32.768L349.525333 581.546667l-1.450666 9.514666a43.946667 43.946667 0 0 1 43.349333-37.376h90.325333c177.365333 0 316.288-72.533333 356.864-282.24 1.237333-6.229333 2.261333-12.288 3.157334-18.176a215.68 215.68 0 0 0-42.453334-17.066666z" fill="#222D65" p-id="3753"></path><path d="M400.853333 254.293333a38.442667 38.442667 0 0 1 38.058667-32.725333h241.28c28.586667 0 55.296 1.877333 79.616 5.845333 16.512 2.602667 32.768 6.528 48.64 11.690667 11.946667 3.968 23.082667 8.704 33.365333 14.165333 12.074667-77.525333-0.085333-130.304-41.770666-178.133333C754.133333 22.528 671.274667 0 565.248 0H257.365333c-21.632 0-40.106667 15.872-43.477333 37.418667L85.674667 855.466667a26.752 26.752 0 0 0 5.973333 21.461333c5.034667 5.888 12.373333 9.301333 20.096 9.344h190.08l47.701333-304.725333 51.328-327.253334z" fill="#253B80" p-id="3754"></path></svg>